<svg width="1331" height="326" viewBox="0 0 1331 326" fill="none" xmlns="http://www.w3.org/2000/svg">
<path fill-rule="evenodd" clip-rule="evenodd" d="M59.0203 0.560005C98.3703 -0.0699954 137.81 0.0799954 177.16 0.409995C197.09 0.579995 218.16 -1.55001 233.8 13.47C253.1 32.03 248.21 60.33 248.31 84.6C248.53 140.93 247.67 197.27 248.28 253.6C248.56 279.04 250.98 305.72 224.3 319.27C207.96 327.57 188.94 325.32 171.16 325.13C136.21 324.76 101.1 324.48 66.1603 325.1C43.6903 325.5 19.9303 325.16 7.28031 302.97C-1.56969 287.45 0.520314 269.81 0.530314 252.6C0.550314 222.27 0.640325 191.93 0.510325 161.6C0.400325 135.6 0.660323 109.6 0.540323 83.6C0.410323 55.71 -4.31968 26.68 21.7203 8.67C25.7203 5.91 29.8503 3.85999 34.5503 2.54999C42.5403 0.309995 50.8003 0.700005 59.0203 0.560005ZM42.2703 26.38C20.2303 30.28 24.8703 58.5 24.8803 74.6C24.8903 78.93 24.9203 83.27 24.9103 87.6C24.8903 96.44 23.4303 106.28 29.8203 113.42C40.0103 124.81 57.5703 120.83 71.1603 121.03C107.48 121.58 143.83 120.95 180.16 121.03C195.05 121.07 214.45 124.45 222.22 108.19C225.46 101.4 224.04 92.88 224.09 85.6C224.15 74.21 224.59 62.76 224.14 51.38C224.01 48.16 224.32 44.88 223.45 41.74C221.77 35.73 216.85 30.6 211.41 27.82C206.2 25.14 199.84 25.94 194.16 25.98C184.16 26.05 174.16 25.94 164.16 25.9C137.49 25.8 110.83 26.02 84.1603 26.03C74.8303 26.04 65.4903 25.98 56.1603 26C51.5803 26.01 46.7903 25.58 42.2703 26.38ZM202.16 73.37C200.22 72.28 197.09 70.31 196.25 68.03C195.08 64.87 195.88 54.57 196.16 51.84C190.13 51.84 184.1 51.84 178.07 51.84C176.63 61.23 180.9 67.03 172.16 73.11C165.9 69.95 167.97 61.74 168.02 55.6C168.04 53.18 167.63 49.95 168.57 47.65C169.37 45.68 171.81 44 173.16 42.28C179.29 41.23 185.91 41.54 192.16 41.52C194.49 41.51 197.82 41.11 199.96 42.25C200.92 42.76 201.11 43.68 201.82 44.38C202.86 45.39 204.31 45.86 205 47.26C206.86 51.01 205.72 57.48 205.71 61.6C205.7 66.63 206.52 70.24 202.16 73.37ZM309.44 59.49C314.52 58.49 319 61.41 319.77 66.6C320.35 70.5 319.83 74.67 319.84 78.6C319.84 86.27 320.01 93.93 319.95 101.6C319.61 149.26 319.89 196.93 319.92 244.6C319.93 257.59 320.06 270.61 319.86 283.6C319.77 289.09 317.93 295.01 311.2 294.76C304.16 294.5 302.94 288.27 302.93 282.6C302.91 270.27 302.97 257.93 302.9 245.6C302.61 198.27 303.03 150.93 302.91 103.6C302.88 92.93 302.93 82.27 302.91 71.6C302.9 66.49 303.38 60.68 309.44 59.49ZM785.59 61.6C787.32 65.48 786.59 70.35 786.61 74.6C786.63 82.93 786.52 91.27 786.57 99.6C786.77 130.93 786.63 162.27 786.59 193.6C786.57 205.27 786.57 216.94 786.69 228.6C786.74 232.95 785.82 239.64 789.13 243.13C792.75 246.94 798.88 244.22 803.16 246.04C805.01 252.02 805.1 265.44 803.76 271.6C799.44 275.07 792.54 275.19 787.16 275.23C769.24 275.39 755.9 268.29 752.84 249.57C750.55 235.52 752.01 217.07 752.02 202.6C752.05 174.93 751.88 147.27 752.13 119.6C752.26 106.6 752 93.6 752.1 80.6C752.14 74.56 751.13 67.72 753.16 62.02C758.24 59.07 770.93 60.53 777.16 60.54C780.23 60.55 782.83 60.24 785.59 61.6ZM564.8 112.6C561.49 117.01 545.32 128.83 540.16 130.1C535.02 126.98 530.43 119.8 525.64 115.61C518.32 109.21 508.46 104.63 499 102.36C492.91 100.89 486.4 100.76 480.16 100.88C439.97 101.69 412.7 134.51 412.9 173.6C413.16 221.15 455.43 255.16 502.05 241.9C511.85 239.11 521.25 233.55 528.46 226.39C532.41 222.46 535.52 216.13 540.16 213.27C544.97 214.49 562.05 226.43 564.79 230.6C563.19 238.94 555.23 246.51 549.11 252.05C530.01 269.35 504.53 276.56 479.16 276.48C433.64 276.34 395.08 249.98 380.76 206.54C376.98 195.08 375.6 182.62 375.72 170.6C376.33 110.4 426.17 67.12 485.16 68.85C508.79 69.55 531.11 76.76 549.31 91.99C555.18 96.9 563.95 104.7 564.8 112.6ZM1140.35 69.4C1163.63 63.59 1175.62 96.06 1154.16 105.15C1151.39 106.33 1148.16 106.81 1145.16 106.78C1124.29 106.55 1119.94 74.5 1140.35 69.4ZM171.16 75.29C173.3 76.79 175.44 78.29 177.57 79.8C177.57 85.55 177.57 91.3 177.57 97.05C183.44 97.05 189.3 97.05 195.16 97.05C197.78 88.76 192.03 79.71 202.16 75.43C203.22 76.37 204.85 77.45 205.34 78.84C206.67 82.64 205.85 97.09 205.16 101.36C203.49 103.13 201.83 104.9 200.16 106.66C194.24 107.34 188.13 107.19 182.16 107.16C179.63 107.15 176.05 107.64 173.71 106.53C172.54 105.97 172.18 104.75 171.34 103.9C170.45 103.01 169.36 102.62 168.68 101.5C166.92 98.57 167.84 90.13 167.94 86.6C168 84.23 167.48 81.17 168.11 78.88C168.52 77.43 170.12 76.28 171.16 75.29ZM692.16 149.92C695.71 144.45 691.53 135.56 694.89 129.6C700.76 127.8 720.03 127.86 725.93 129.6C727.77 133.33 727.11 137.5 727.13 141.6C727.17 148.6 727.33 155.6 727.3 162.6C727.2 187.93 727.52 213.28 727.1 238.6C726.98 245.93 727.21 253.27 727.22 260.6C727.23 264.63 728.03 268.8 726.16 272.42C722.91 273.9 719.69 273.53 716.16 273.5C709.5 273.43 699.98 275.4 694.16 271.94C693.52 265.16 692.88 258.38 692.23 251.6C675.72 274.06 649.71 281.25 623.09 273.29C615.16 270.92 606.83 267.16 600.43 261.8C581.9 246.28 573.19 223.48 573.46 199.6C573.71 176.82 583.46 153.78 601.85 139.78C628.11 119.79 673.26 119.71 692.16 149.92ZM946.6 162.6C942.26 166.22 927.11 177.19 922.16 177.67C918.95 175.75 917.35 172.16 914.79 169.48C909.83 164.3 903.89 160.37 896.96 158.38C867.13 149.8 843.91 173.72 844.84 202.6C845.78 231.74 872.23 254.4 901.09 242.01C906.33 239.77 911.85 235.84 915.65 231.58C918.34 228.56 919.4 224.34 923.16 222.51C928.8 223.64 943.09 233.51 947.59 237.6C947.3 244.16 941.45 250.35 937.08 255.02C922.95 270.08 902.41 276.68 882.16 276.39C838.71 275.78 808.33 242.52 808.84 199.6C809.38 154.61 843.45 125.64 887.16 125.91C905.84 126.03 925.43 133.07 937.87 147.38C941.93 152.05 946.77 156.01 946.6 162.6ZM1104.16 272.27C1100.77 274.1 1096.98 273.62 1093.16 273.58C1086.4 273.53 1078.55 274.61 1072.07 272.6C1068.92 267.37 1070.62 254.07 1070.66 247.6C1070.71 240.6 1070.67 233.6 1070.64 226.6C1070.6 218.27 1070.63 209.93 1070.62 201.6C1070.59 183.97 1069.92 166.68 1051.14 159.15C1047.85 157.84 1044.71 157.12 1041.16 156.92C1036.84 156.68 1032.37 156.93 1028.17 158.03C995.85 166.51 1000.79 202.83 1000.9 228.6C1000.92 235.27 1000.96 241.93 1000.98 248.6C1001 255.98 1002.49 265.13 1000.16 272.11C997.05 273.82 993.71 273.55 990.16 273.6C983.12 273.7 974.14 274.83 967.53 272.6C965.53 268.96 966.24 264.71 966.24 260.6C966.25 252.27 966.12 243.93 966.12 235.6C966.1 211.93 966.28 188.26 966.17 164.6C966.13 155.28 964.41 138.26 967.16 129.91C970.05 128.52 972.95 128.7 976.16 128.68C983.01 128.63 993.01 127.02 999.16 130.07C999.83 136.96 1000.49 143.84 1001.16 150.72C1007.76 142.2 1014.38 135.01 1024.47 130.46C1047.81 119.92 1081.22 126.64 1095.61 148.7C1105.4 163.71 1105.21 180.37 1105.15 197.62C1105.1 211.28 1105.24 224.94 1105.28 238.6C1105.31 245.93 1105.29 253.27 1105.22 260.6C1105.18 264.53 1105.74 268.66 1104.16 272.27ZM1162.16 129.87C1164 133.1 1163.44 136.9 1163.5 140.6C1163.62 147.6 1163.65 154.6 1163.6 161.6C1163.42 187.26 1163.52 212.94 1163.54 238.6C1163.54 246.26 1163.77 253.94 1163.69 261.6C1163.65 265.43 1164.15 269.22 1162.16 272.52C1158.91 273.88 1155.65 273.57 1152.16 273.55C1145.42 273.51 1136.3 275.19 1130.16 272.26C1128.28 268.46 1129.02 263.8 1129.01 259.6C1128.98 251.27 1129.04 242.93 1129.09 234.6C1129.23 210.93 1129.01 187.27 1129.08 163.6C1129.1 154.44 1127.44 138.35 1130.16 130.09C1133.05 128.67 1135.93 128.96 1139.16 128.87C1146.12 128.69 1155.74 127.03 1162.16 129.87ZM1211.16 130.07C1225.16 164.49 1239.16 198.92 1253.16 233.35C1257.14 225.95 1259.6 217.54 1262.88 209.78C1269.65 193.79 1275.94 177.54 1282.48 161.44C1285.62 153.7 1291.14 134.88 1296.16 129.39C1303.49 127.87 1322.66 127.52 1329.7 129.6C1331.17 133.43 1328.78 136.61 1327.24 140.22C1324.06 147.68 1320.71 155.09 1317.62 162.58C1306.91 188.54 1294.37 213.79 1284.01 239.89C1281.1 247.21 1277.57 254.29 1274.72 261.62C1273.49 264.76 1272.3 270.35 1269.51 272.46C1267.01 274.35 1263.06 273.68 1260.16 273.66C1252.36 273.6 1243.72 274.46 1236.16 272.69C1233.26 269.43 1231.79 264.21 1230.09 260.17C1226.93 252.69 1223.62 245.28 1220.42 237.8C1210.28 214.06 1199.54 190.58 1189.41 166.82C1185.93 158.64 1182.41 150.45 1179.09 142.2C1177.54 138.36 1174.9 134.65 1175.16 130.43C1178.22 128.16 1181.37 128.85 1185.16 128.85C1192.32 128.83 1204.92 127.07 1211.16 130.07ZM44.4503 138.55C33.9403 139.88 23.3603 146.92 21.0203 157.82C18.7103 168.56 20.2603 180.67 20.2903 191.6C20.3603 211.93 20.1403 232.27 20.3303 252.6C20.4203 262.89 18.4003 279.83 22.1903 289.06C29.8003 307.56 48.6703 305.75 65.1603 305.65C102.16 305.43 139.16 305.72 176.16 305.69C190.85 305.68 210.17 309.34 221.15 297.1C229.03 288.32 228.45 278.78 228.46 267.6C228.47 255.27 228.51 242.93 228.55 230.6C228.6 212.6 228.43 194.6 228.48 176.6C228.51 168.36 230.02 158.45 225.03 151.25C213.43 134.54 195.08 138.28 177.16 138.19C150.16 138.06 123.16 138.47 96.1603 138.32C84.8303 138.25 73.4903 138.26 62.1603 138.29C56.3103 138.31 50.2603 137.82 44.4503 138.55ZM49.4403 147.55C55.5903 146.78 61.9803 147.21 68.1603 147.27C81.7403 147.39 106.61 143.15 114.79 156.45C119.61 164.28 117.7 175.82 117.69 184.6C117.67 194.11 118.93 203.36 111.57 210.51C105.79 216.12 98.7803 216.17 91.1603 216.13C80.8303 216.08 70.4903 216.02 60.1603 216.06C50.0103 216.09 38.9503 215.82 34.2503 204.99C31.5603 198.79 32.5203 191.21 32.5403 184.6C32.5703 170.06 29.8103 150.02 49.4403 147.55ZM148.31 147.5C154.17 146.81 160.28 147.23 166.16 147.25C172.83 147.27 179.49 147.21 186.16 147.25C196.33 147.31 207.43 146.89 213.34 156.89C217.95 164.67 215.72 175.94 215.83 184.6C215.95 194.27 216.94 204.04 209.24 211.18C203.43 216.57 195.54 216.03 188.16 216.12C178.83 216.22 169.49 216.03 160.16 215.99C149.33 215.95 137.64 216.34 132.38 204.85C129.64 198.86 130.66 191.99 130.59 185.6C130.43 170.21 127.7 149.93 148.31 147.5ZM642.42 157.49C610.96 163 600.81 203.59 617.23 228.02C622.83 236.36 631.58 241.6 641.15 244.15C647.58 245.87 654.66 245.32 661.1 243.88C687.49 237.99 700.29 204.31 688.4 180.86C679.62 163.53 661.88 154.09 642.42 157.49ZM77.1603 164.16C75.4303 164.16 73.7003 164.16 71.9703 164.16C69.9603 168.41 70.9303 173.02 70.2203 177.6C65.6903 178.35 61.0103 177.3 56.8903 179.44C56.8903 180.94 56.8903 182.44 56.8903 183.94C61.0603 186.25 65.6503 184.93 70.1603 186.11C71.0403 190.36 69.7303 195.33 72.1603 199.05C74.2703 199.91 75.0203 199.89 77.1603 199.05C79.6203 195.49 78.4103 190.25 79.1603 186.03C83.4903 185.51 87.8303 185 92.1603 184.48C93.5003 181.87 93.1303 180.91 92.1603 178.1C87.8103 178.1 83.4603 178.1 79.1103 178.1C78.5103 173.65 79.7403 167.93 77.1603 164.16ZM190.62 183.6C190.72 181.89 191.33 179.81 189.71 178.56C187.68 177.01 183.54 177.77 181.16 177.74C173.55 177.64 164.03 176.26 156.81 178.6C156.04 180.49 155.14 183.33 157.59 184.62C159.86 185.81 163.67 185.09 166.16 185.1C172.1 185.11 186.22 187 190.62 183.6ZM51.3003 225.56C61.5503 224.94 71.9003 225.65 82.1603 225.56C94.5803 225.45 109.8 223.63 116.1 237.17C119.62 244.72 117.69 255.46 117.7 263.6C117.7 272.86 119.07 282.7 111.84 289.78C106.43 295.07 99.2303 295.1 92.1603 295.16C80.5103 295.26 68.8103 295.41 57.1603 295.18C48.1403 294.99 38.9003 293.73 34.7103 284.56C31.6003 277.74 32.6003 269.9 32.6103 262.6C32.6103 247.1 29.6103 226.87 51.3003 225.56ZM160.29 225.58C169.91 225.42 179.53 225.49 189.16 225.54C194.92 225.57 200.88 225.2 206.02 228.22C219.53 236.17 215.91 254.31 215.91 267.6C215.92 276.16 216.24 284.95 208.79 290.71C200.9 296.8 190.48 295.02 181.16 295.08C169.65 295.15 144.93 298.3 136.51 289.77C128.46 281.62 130.55 269.03 130.57 258.6C130.58 253.03 130.07 247.16 130.86 241.64C131.44 237.53 133.76 233.53 136.77 230.7C143.17 224.67 152.22 225.72 160.29 225.58ZM63.1603 245.31C62.0803 246.41 61.0003 247.5 59.9203 248.6C61.0703 253.09 65.5103 256.17 68.5403 259.6C65.9303 264 58.0103 267.71 61.1603 273.25C67.3003 275.92 70.3303 268.44 75.1603 265.87C79.3903 269.58 82.2103 274.8 88.1603 273.92C92.7103 268.34 83.7803 264.11 81.1703 259.6C84.4703 255.49 91.9703 251.52 88.1603 245.94C82.7203 243.95 79.1203 250.81 75.1603 253.94C71.0703 251.34 67.9703 246.3 63.1603 245.31ZM189.48 248.6C182.67 246.23 173.39 247.55 166.16 247.61C162.4 247.64 159.38 247.07 156.52 249.6C156.53 251.32 156.06 253.34 157.78 254.48C159.74 255.78 163.9 255.03 166.16 255.04C172.6 255.06 183.49 256.36 189.16 253.82C190.29 251.67 190.23 250.89 189.48 248.6ZM189.91 265.6C187.19 263.68 184.49 263.91 181.16 263.93C174.87 263.97 161.2 262.43 156.27 265.6C156.27 267.27 156.27 268.93 156.27 270.6C162.9 272.98 171.16 271.82 178.16 271.8C181.1 271.79 185.04 272.51 187.86 271.65C190.81 270.76 190.64 267.89 189.91 265.6Z" fill="#1654E5" stroke="#1654E5" stroke-width="0.25" stroke-linejoin="round"/>
</svg>
